<svg xmlns="http://www.w3.org/2000/svg" width="23px" height="23px" viewBox="0 0 24 24" data-aut-id="icon" class="" fill-rule="evenodd"><path class="rui-w4DG7" d="M22.7793 6.16406V17.5645L21.96 18.4961H6.19336L5.37402 17.5645V6.16406L6.19336 5.23242H21.96L22.7793 6.16406ZM3.74902 15.4746H3.8291V17.5166H3.74902V17.5176H2.09961L1 16.4951L2.09961 15.4736H3.74902V15.4746ZM7.40625 16.4746H20.7373V7.26855H7.40625V16.4746ZM14.2988 9.9082C15.3277 9.90825 16.1611 10.7422 16.1611 11.7705C16.1611 12.7994 15.3277 13.6328 14.2988 13.6328C13.271 13.6328 12.4365 12.7994 12.4365 11.7705C12.4365 10.7421 13.271 9.9082 14.2988 9.9082ZM3.74902 10.8643H3.8291V12.9053H3.74902V12.9062H2.09961L1 11.8848L2.09961 10.8623H3.74902V10.8643ZM3.74902 6.25391H3.8291V8.29492H3.74902V8.2959H2.09961L1 7.27441L2.09961 6.25293H3.74902V6.25391Z"/></svg>