<svg width="94" height="45" viewBox="0 0 94 45" fill="none" xmlns="http://www.w3.org/2000/svg">
<rect x="2.5" y="2.5" width="89" height="40" rx="20" fill="white" stroke="url(#paint0_linear_4498_64)" stroke-width="5"/>
<path d="M30 16L30 28" stroke="#020812" stroke-width="3" stroke-linecap="round"/>
<path d="M36 22L24 22" stroke="#020812" stroke-width="3" stroke-linecap="round"/>
<path d="M47.6037 19.6719C47.5639 19.2997 47.3963 19.0099 47.1009 18.8026C46.8082 18.5952 46.4276 18.4915 45.9588 18.4915C45.6293 18.4915 45.3466 18.5412 45.1108 18.6406C44.875 18.7401 44.6946 18.875 44.5696 19.0455C44.4446 19.2159 44.3807 19.4105 44.3778 19.6293C44.3778 19.8111 44.419 19.9687 44.5014 20.1023C44.5866 20.2358 44.7017 20.3494 44.8466 20.4432C44.9915 20.5341 45.152 20.6108 45.3281 20.6733C45.5043 20.7358 45.6818 20.7884 45.8608 20.831L46.679 21.0355C47.0085 21.1122 47.3253 21.2159 47.6293 21.3466C47.9361 21.4773 48.2102 21.642 48.4517 21.8409C48.696 22.0398 48.8892 22.2798 49.0312 22.5611C49.1733 22.8423 49.2443 23.1719 49.2443 23.5497C49.2443 24.0611 49.1136 24.5114 48.8523 24.9006C48.5909 25.2869 48.2131 25.5895 47.7188 25.8082C47.2273 26.0241 46.6321 26.1321 45.9332 26.1321C45.2543 26.1321 44.6648 26.027 44.1648 25.8168C43.6676 25.6065 43.2784 25.2997 42.9972 24.8963C42.7188 24.4929 42.5682 24.0014 42.5455 23.4219H44.1009C44.1236 23.7259 44.2173 23.9787 44.3821 24.1804C44.5469 24.3821 44.7614 24.5327 45.0256 24.6321C45.2926 24.7315 45.5909 24.7812 45.9205 24.7812C46.2642 24.7812 46.5653 24.7301 46.8239 24.6278C47.0852 24.5227 47.2898 24.3778 47.4375 24.1932C47.5852 24.0057 47.6605 23.7869 47.6634 23.5369C47.6605 23.3097 47.5938 23.1222 47.4631 22.9744C47.3324 22.8239 47.1491 22.6989 46.9134 22.5994C46.6804 22.4972 46.4077 22.4062 46.0952 22.3267L45.1023 22.071C44.3835 21.8864 43.8153 21.6065 43.3977 21.2315C42.983 20.8537 42.7756 20.3523 42.7756 19.7273C42.7756 19.2131 42.9148 18.7628 43.1932 18.3764C43.4744 17.9901 43.8565 17.6903 44.3395 17.4773C44.8224 17.2614 45.3693 17.1534 45.9801 17.1534C46.5994 17.1534 47.142 17.2614 47.608 17.4773C48.0767 17.6903 48.4446 17.9872 48.7116 18.3679C48.9787 18.7457 49.1165 19.1804 49.125 19.6719H47.6037ZM50.6538 26V17.2727H56.3299V18.598H52.2347V20.9673H56.0359V22.2926H52.2347V24.6747H56.364V26H50.6538ZM57.9428 26V17.2727H59.5238V24.6747H63.3675V26H57.9428ZM64.7397 26V17.2727H66.3207V24.6747H70.1644V26H64.7397Z" fill="#004896"/>
<defs>
<linearGradient id="paint0_linear_4498_64" x1="2.5" y1="27.5" x2="91.5" y2="34" gradientUnits="userSpaceOnUse">
<stop offset="0.0913462" stop-color="#FFCE32"/>
<stop offset="0.542569" stop-color="#42B3AD"/>
<stop offset="0.885074" stop-color="#0078FB"/>
</linearGradient>
</defs>
</svg>
