<svg xmlns="http://www.w3.org/2000/svg" width="23px" height="23px" viewBox="0 0 1024 1024" data-aut-id="icon" class="" fill-rule="evenodd"><path class="rui-w4DG7" d="M830.798 448.659L512 838.574L194.172 449.881C173.712 422.71 162.909 390.536 162.909 356.848C162.909 271.282 232.514 201.697 318.061 201.697C390.187 201.697 450.812 251.248 468.112 318.06H555.889C573.188 251.248 633.794 201.697 705.94 201.697C791.486 201.697 861.091 271.282 861.091 356.848C861.091 390.536 850.289 422.71 830.798 448.659M705.94 124.121C625.086 124.121 553.736 165.547 512 228.325C470.264 165.547 398.914 124.121 318.061 124.121C189.731 124.121 85.3335 228.499 85.3335 356.848C85.3335 407.505 101.527 455.796 133.14 497.745L461.906 899.879H562.095L891.811 496.524C922.473 455.796 938.667 407.505 938.667 356.848C938.667 228.499 834.269 124.121 705.94 124.121"/></svg>